<?xml version="1.0" standalone="no"?>
<!DOCTYPE svg PUBLIC "-//W3C//DTD SVG 20010904//EN"
 "http://www.w3.org/TR/2001/REC-SVG-20010904/DTD/svg10.dtd">
<svg version="1.0" xmlns="http://www.w3.org/2000/svg"
 width="300.000000pt" height="300.000000pt" viewBox="0 0 300.000000 300.000000"
 preserveAspectRatio="xMidYMid meet">
<metadata>
Created by potrace 1.11, written by Peter Selinger 2001-2013
</metadata>
<g transform="translate(0.000000,300.000000) scale(0.100000,-0.100000)"
fill="#000000" stroke="none">
<path d="M1748 1916 c-37 -12 -86 -37 -108 -55 l-40 -32 0 46 0 45 -100 0
c-82 0 -100 -3 -100 -15 0 -8 -11 -43 -24 -77 -13 -35 -35 -94 -49 -133 -14
-38 -41 -113 -60 -165 -39 -105 -33 -105 -68 -5 -6 17 -15 39 -19 50 -10 25
-82 222 -107 293 l-18 53 -95 -3 -95 -3 0 -337 0 -338 57 0 58 0 2 271 3 271
100 -272 100 -271 44 3 c43 3 43 3 65 63 48 129 147 391 155 410 5 11 13 31
18 45 7 17 10 -57 10 -230 1 -140 2 -263 2 -272 1 -15 11 -18 61 -18 l60 0 0
46 0 46 38 -29 c42 -33 89 -56 146 -72 46 -12 219 -8 256 7 14 5 27 10 30 10
3 1 20 6 38 13 l32 11 0 179 0 179 -129 0 c-143 0 -141 1 -133 -67 l4 -33 72
0 71 0 -2 -68 c-2 -129 0 -121 -35 -131 -53 -14 -168 -7 -211 13 -111 54 -164
225 -108 351 26 59 43 79 96 114 35 23 50 26 120 26 73 0 84 -3 126 -32 l47
-31 36 38 c20 21 36 43 36 48 0 5 -12 17 -26 27 -49 32 -109 47 -199 51 -74 3
-102 -1 -157 -20z"/>
</g>
</svg>
